<?xml version="1.0" encoding="utf-8"?>
<!-- Generator: Adobe Illustrator 16.0.0, SVG Export Plug-In . SVG Version: 6.00 Build 0)  -->
<!DOCTYPE svg PUBLIC "-//W3C//DTD SVG 1.1//EN" "http://www.w3.org/Graphics/SVG/1.1/DTD/svg11.dtd">
<svg version="1.1" id="Layer_1" xmlns="http://www.w3.org/2000/svg" xmlns:xlink="http://www.w3.org/1999/xlink" x="0px" y="0px"
	 width="864px" height="864px" viewBox="0 0 864 864" enable-background="new 0 0 864 864" xml:space="preserve">
<path fill-rule="evenodd" clip-rule="evenodd" d="M716.381,494.173c-3.948-9.057-4.742-22.151-1.361-31.312
	c24.478-66.355,0.39-124.957-66.164-149.62c-19.582-7.256-26.113-17.257-29.275-36.181c-8.185-48.976-31.22-66.765-80.503-62.992
	c-1.545-18.412-5.877-37.17-4.037-55.304c3.354-33.052-0.953-61.559-28.517-82.16c-0.41-11.28-1.369-23.899-8.15-30.773
	c-3.884-3.937-18.571-0.971-26.078,3.129c-23.695,12.944-45.384,23.782-75.089,15.139c-26.154-7.611-54.584-3.803-80.473,8.765
	c-25.723,12.487-38.136,30.7-35.18,52.859c2.955,22.165,19.501,35.783,51.146,39.915c-4.273,23.623-7.15,46.289-12.708,68.276
	c-5.231,20.684-12.076,41.191-20.721,60.661c-3.361,7.569-12.769,15.409-20.843,17.422c-36.983,9.223-70.36,24.649-100.904,47.666
	c-31.695,23.883-44.184,54.26-31.725,91.53c7.052,21.092,25.256,39.156,29.347,60.338c4.242,21.972-5.257,46.247-3.736,69.183
	c1.943,29.268,7.219,58.609,14.15,87.17c8.145,33.57,14.428,69.188,30.759,98.826c29.458,53.47,107.854,79.115,175.97,64.587
	c63.441-13.531,110.356-50.02,143.952-104.417c6.847-11.087,14.276-13.655,27.463-14.002c25.891-0.684,52.812-2.339,77.23-10.109
	c46.184-14.694,82.333-43.459,93.703-93.467C743.771,569.126,732.526,531.213,716.381,494.173z M306.71,137.085
	c-10.029-13.175-8.305-30.519,6.36-40.559c30.727-21.038,64.327-22.033,98.081-12.289c-23.479,18.384-45.847,35.846-68.156,53.387
	C330.704,147.289,318.534,152.617,306.71,137.085z M348.229,304.191c-4.498,11.025-9.981,17.395-20.192,9.695
	c15.318-59.92,30.296-118.512,45.271-177.103c1.811,0.453,3.621,0.906,5.432,1.359C372.005,194.088,370,250.836,348.229,304.191z
	 M466.418,239.182c-72.083,8.586-90.904,39.7-59.729,118.208c6.825,17.188,12.53,30.434,3.363,47.34
	c-3.085,5.69-3.775,12.679-7.071,24.484c-3.777-7.64-7.491-11.559-7.225-15.184c2.053-27.916-9.912-50.637-24.811-72.717
	c-2.904-4.305-5.474-11.977-3.598-15.896c25.847-54.018,27.736-112.759,35.335-170.475c2.295-17.428,8.551-34.335,12.994-51.479
	c3.389-0.071,6.78-0.144,10.168-0.215c2.792,10.962,7.164,21.796,8.068,32.913c2.31,28.361,9.008,53.509,32.763,72.754
	c6.094,4.938,5.393,18.26,7.619,26.964C468.863,238.189,467.681,239.03,466.418,239.182z M455.578,100.308
	c1.84-0.382,3.682-0.763,5.522-1.143c3.92,25.926,7.839,51.852,12.28,81.236C457.881,164.391,451.391,130.687,455.578,100.308z
	 M423.896,92.269c19.768-11.975,37.148-22.508,57.308-34.721C480.718,78.115,444.184,100.197,423.896,92.269z M492.602,186.42
	c-2.779-27.562-5.387-53.413-7.93-78.643C511.341,132.467,515.506,165.88,492.602,186.42z M498.079,230.478
	c0.157-12.369-6.884-26.507,10.135-34.317C518.893,225.69,517.687,229.995,498.079,230.478z"/>
<g>
	<path fill-rule="evenodd" clip-rule="evenodd" fill="#BE1E2D" d="M394.519,531.219c4.49,25.536,6.89,47.21,12.428,68.052
		c4.161,15.659,10.598,31.346,19.172,45.049c12.3,19.654,37.881,58.681,41.778,56.63c18.169-8.92,17.237-12.328-21.247-62.683
		c27.761,8.446,50.402,6.094,68.705-17.851c7.769-10.164,30.901,2.825,31.959,18.772c0.776,11.688-0.388,24.823-5.097,35.342
		c-31.888,71.241-79.094,125.428-160.627,140.642c-63.955,11.934-134.079-18.116-157.136-71.152
		c-9.209-21.184-13.604-44.803-17.791-67.752c-7.079-38.789-13.378-77.798-17.87-116.959c-3.704-32.288,11.603-57.313,37.525-75.418
		c38.375-26.803,80.568-45.029,126.905-53.024c3.288-0.567,6.673-0.883,10.003-0.826c61.841,1.074,131.898,62.58,139.686,123.38
		c1.848,14.426,3.4,29.645,0.825,43.72c-4.677,25.583-28.009,34.804-50.79,21.893c-18.187-10.309-27.612-26.005-30.28-46.94
		c-1.487-11.68-5.8-23.151-9.961-34.297C408.107,525.479,400.229,525.712,394.519,531.219z"/>
	<path fill-rule="evenodd" clip-rule="evenodd" fill="#BE1E2D" d="M636.43,435.405c-27.186-8.296-10.531-26.019-11.059-39.885
		c-16.127-5.56-23.938,2.25-21.566,16.032c4.904,28.481-19.369,40.302-31.521,58.701c-2.945,4.458-15.258,1.832-22.525,4.485
		c-33.229,12.133-60.354,5.295-85.527-20.386c-11.64-11.874-29.715-17.441-45.784-26.373c1.777-8.024,3.068-15.866,5.298-23.43
		c3.17-10.744,8.377-13.421,21.674-13.208c65.104,1.038,126.37-11.997,175.393-59.832c3.375-3.292,10.379-5.867,14.664-4.766
		c48.822,12.562,76.472,56.396,67.52,105.877c-6.121,33.821-19.137,64.458-44.592,88.214c-19.509,18.207-42.316,15.839-62.089-4.651
		c-14.448-14.97-13.376-32.032,4.464-51.437c7.199-7.832,16.136-14.075,24.368-20.939C628.032,441.4,631.173,439.301,636.43,435.405
		z"/>
	<path fill-rule="evenodd" clip-rule="evenodd" fill="#BE1E2D" d="M686.676,591.231c4.324-2.231,0.772-25.057-3.47-33.173
		c-11.77-22.52-3.613-37.725,14.294-50.839c26.303,38.88,26.119,97.105,7.916,126.125c-26.312,41.944-90.722,69.568-148.195,61.065
		c16.824-70.356,13.813-79.364-31.99-96.543c-1.501-16.693-2.153-33.365-4.715-49.736c-2.44-15.605-6.87-30.898-10.94-48.563
		c19.574-3.05,36.502-5.686,53.19-8.287c14.349,48.996,52.833,68.511,93.781,55.312C673.332,555.827,660,600,686.676,591.231z"/>
	<path fill-rule="evenodd" clip-rule="evenodd" fill="#BE1E2D" d="M381.111,411.879c-74.003,2.166-137.633,29.358-191.972,79.616
		c-36.344-29.247-38.423-84.547-3-114.373c33.62-28.308,72.78-45.559,116.184-51.547
		C344.682,319.73,384.351,363.891,381.111,411.879z M205.865,388.556c-4.799-8.048-14.521-5.724-19.133,5.436
		c-5.666,13.707-7.95,29.041-10.117,43.902c-2.301,15.773,6.379,17.562,15.104,14.55
		C196.432,431.164,200.471,412.916,205.865,388.556z"/>
	<path fill-rule="evenodd" clip-rule="evenodd" fill="#BE1E2D" d="M402.793,304.959c3.43-28.812,11.447-41.045,38.203-47.803
		c36.939-9.331,74.295-17.03,111.532-25.162c17.677-3.859,31.466,3.74,37.796,19.363c7.464,18.423,13.856,38.031,15.76,57.607
		c0.822,8.457-8.702,21.438-17.084,26.677c-41.75,26.1-88.523,38.201-137.29,39.789c-9.906,0.323-24.037-9.499-29.486-18.652
		C412.937,341.178,408.986,322.402,402.793,304.959z M576.679,239.446c-3.679-5.446-14.282,3.968-19.265,8.387
		c-35.007,31.053-76.036,42.312-121.976,40.19c-7.083-0.327-23.438-0.023-21.586,6.348
		C466.075,320.95,557.008,290.798,576.679,239.446z"/>
</g>
</svg>
